<svg width="150" height="43" viewBox="0 0 150 43" fill="none" xmlns="http://www.w3.org/2000/svg">
<path d="M73.7071 27.141C75.1356 32.5778 76.7835 36.153 80.5798 37.1807C81.1581 37.3379 81.7043 37.4154 82.246 37.4154C83.3911 37.4154 84.3145 37.0713 85.2058 36.7363C86.0286 36.431 86.9452 36.096 88.2159 35.9821L89.1645 35.9548C89.1645 35.9479 92.0328 36.3672 93.0316 36.7409C93.9207 37.0736 94.8395 37.4154 95.98 37.4154C96.524 37.4154 97.0725 37.3402 97.6508 37.183C101.449 36.1553 103.095 32.5801 104.521 27.1432C106.176 20.8451 105.719 16.625 103.269 15.5609C102.869 15.3854 102.448 15.2988 102.021 15.2988C99.8404 15.2988 97.8359 17.582 96.3709 19.2523L95.9732 19.7126C94.7801 21.1048 92.2797 21.9024 89.1142 21.9024C85.6744 21.9024 83.5579 21.2256 82.2575 19.7103L81.8598 19.2477C80.397 17.582 78.3925 15.2988 76.2121 15.2988C75.7801 15.2988 75.3619 15.3877 74.9665 15.5609C72.5141 16.625 72.0569 20.8451 73.7071 27.141ZM94.323 26.7171H95.9595V25.1358C95.9595 24.557 96.4714 24.0694 97.0771 24.0694C97.6828 24.0694 98.1947 24.557 98.1947 25.1358V26.7171H99.7307C100.311 26.7171 100.803 27.2276 100.803 27.8314C100.803 28.4352 100.311 28.9457 99.7307 28.9457H98.1947V30.527C98.1947 31.1058 97.6828 31.5957 97.0771 31.5957C96.4714 31.5957 95.9595 31.1058 95.9595 30.527V28.9457H94.323C93.7447 28.9457 93.2533 28.4352 93.2533 27.8314C93.2511 27.2276 93.7425 26.7171 94.323 26.7171ZM82.7031 24.778C83.6105 24.778 84.3465 25.5117 84.3465 26.4141C84.3465 27.3187 83.6082 28.0524 82.7031 28.0524C81.7981 28.0524 81.0621 27.3164 81.0621 26.4141C81.0621 25.5117 81.7981 24.778 82.7031 24.778ZM79.6405 27.8314C80.5456 27.8314 81.2815 28.5674 81.2815 29.4697C81.2815 30.3721 80.5456 31.1058 79.6405 31.1058C78.7354 31.1058 77.9994 30.3721 77.9971 29.4697C77.9971 28.5651 78.7354 27.8314 79.6405 27.8314Z" fill="white"/>
<path fill-rule="evenodd" clip-rule="evenodd" d="M106.539 18.7988C106.695 19.7832 107.552 20.5352 108.587 20.5352C109.62 20.5352 110.477 19.7832 110.635 18.7988C110.647 18.7145 110.626 18.6348 110.571 18.5664C110.516 18.5003 110.441 18.4662 110.356 18.4662H106.823C106.738 18.4662 106.663 18.5003 106.608 18.5664C106.549 18.6348 106.528 18.71 106.539 18.7988ZM110.841 15.292C111.494 15.292 112.027 15.8229 112.027 16.4746C112.027 17.1263 111.494 17.6572 110.841 17.6572H106.334C105.678 17.6572 105.147 17.1263 105.147 16.4746C105.147 16.0827 105.342 15.7341 105.637 15.5199L110.308 11.8923C110.66 11.6188 111.035 11.3158 111.398 11.0469C111.904 10.639 112.322 10.1218 112.614 9.53616C112.9 8.95055 113.065 8.28291 113.065 7.56969C113.065 6.33694 112.564 5.22268 111.753 4.41376C110.941 3.60712 109.824 3.10582 108.587 3.10582C107.351 3.10582 106.231 3.60712 105.422 4.41376C104.61 5.22268 104.108 6.33694 104.108 7.56969C104.108 8.42418 104.345 9.21943 104.754 9.88935C105.182 10.5889 105.797 11.1654 106.53 11.5391C107.108 11.8376 107.337 12.5485 107.042 13.125C106.743 13.7015 106.03 13.9294 105.451 13.6354C104.332 13.0589 103.39 12.1839 102.736 11.113C102.108 10.0785 101.74 8.86624 101.74 7.56969C101.74 5.68525 102.508 3.98082 103.746 2.74352C104.987 1.51077 106.697 0.745148 108.587 0.745148C110.477 0.745148 112.187 1.51077 113.428 2.74352C114.665 3.97626 115.433 5.68525 115.433 7.56969C115.433 8.64065 115.181 9.65693 114.733 10.5707C114.285 11.4753 113.647 12.266 112.87 12.8949C112.486 13.2139 112.006 13.5716 111.609 13.8792L109.785 15.292H110.841Z" fill="#D600FF"/>
<path d="M105.961 4.89709C106.711 4.14969 107.602 3.776 108.64 3.776C109.675 3.776 110.569 4.14969 111.318 4.89709C112.068 5.64449 112.443 6.53544 112.443 7.56766C112.443 8.60217 112.068 9.49084 111.318 10.2382C110.569 10.9856 109.675 11.3593 108.64 11.3593C107.602 11.3593 106.711 10.9856 105.961 10.2382C105.211 9.49084 104.837 8.60217 104.837 7.56766C104.837 6.53544 105.211 5.64449 105.961 4.89709ZM105.349 15.2239V33.7356H111.757V15.2239H105.349Z" fill="black" fill-opacity="0.4"/>
<path d="M122.76 14.6771C123.82 14.6771 124.867 14.8001 125.905 15.0416C126.94 15.2786 127.715 15.5202 128.227 15.7617L128.986 16.1263L126.883 20.3099C125.438 19.5397 124.062 19.1523 122.76 19.1523C122.033 19.1523 121.519 19.2321 121.215 19.3893C120.915 19.5488 120.767 19.8428 120.767 20.2734C120.767 20.3714 120.778 20.4694 120.803 20.5651C120.826 20.6562 120.876 20.7451 120.95 20.8294C121.023 20.916 121.087 20.9889 121.142 21.0482C121.201 21.1097 121.306 21.1758 121.452 21.2487C121.599 21.3216 121.713 21.3763 121.8 21.4127C121.884 21.4492 122.021 21.5039 122.211 21.5768C122.405 21.6452 122.552 21.6953 122.65 21.7318C122.746 21.7682 122.908 21.8229 123.135 21.8958C123.365 21.9687 123.541 22.0189 123.665 22.0416C124.408 22.2604 125.057 22.5042 125.612 22.7708C126.172 23.0329 126.759 23.3906 127.377 23.8463C127.991 24.3021 128.467 24.8808 128.803 25.5781C129.136 26.2777 129.306 27.0706 129.306 27.957C129.306 32.168 126.373 34.2734 120.511 34.2734C119.181 34.2734 117.919 34.0683 116.726 33.6627C115.53 33.2571 114.669 32.847 114.139 32.4323L113.343 31.7851L115.949 27.4193C116.143 27.5901 116.397 27.7907 116.708 28.0208C117.023 28.2464 117.59 28.5586 118.408 28.9596C119.231 29.3561 119.944 29.5521 120.547 29.5521C121.875 29.5521 122.54 29.1054 122.54 28.2122C122.54 27.8066 122.369 27.4899 122.028 27.2643C121.692 27.0342 121.119 26.7767 120.31 26.4896C119.505 26.1979 118.87 25.9313 118.408 25.6875C117.249 25.0859 116.333 24.4069 115.656 23.6458C114.984 22.887 114.651 21.8844 114.651 20.638C114.651 18.7604 115.377 17.2998 116.836 16.2539C118.298 15.2034 120.273 14.6771 122.76 14.6771Z" fill="black" fill-opacity="0.4"/>
<path d="M149.69 25.3594H136.224C136.224 26.6605 136.644 27.6243 137.485 28.2487C138.331 28.8753 139.25 29.1875 140.237 29.1875C141.279 29.1875 142.102 29.0508 142.706 28.7773C143.309 28.4993 143.995 27.9479 144.763 27.1276L149.398 29.4427C147.464 32.6647 144.255 34.2734 139.771 34.2734C136.967 34.2734 134.562 33.3209 132.558 31.4114C130.558 29.4974 129.559 27.1959 129.559 24.5026C129.559 21.8047 130.558 19.4941 132.558 17.5664C134.562 15.6409 136.967 14.6771 139.771 14.6771C142.715 14.6771 145.11 15.5247 146.957 17.22C148.804 18.9153 149.727 21.3398 149.727 24.4935C149.727 24.931 149.713 25.2204 149.69 25.3594ZM136.407 21.8229H143.464C143.318 20.8636 142.937 20.1253 142.322 19.6081C141.705 19.0931 140.916 18.8333 139.954 18.8333C138.886 18.8333 138.039 19.1113 137.412 19.6627C136.784 20.2165 136.448 20.9365 136.407 21.8229Z" fill="black" fill-opacity="0.4"/>
<path d="M105.961 4.89709C106.711 4.14969 107.602 3.776 108.64 3.776C109.675 3.776 110.569 4.14969 111.318 4.89709C112.068 5.64449 112.443 6.53544 112.443 7.56766C112.443 8.60217 112.068 9.49084 111.318 10.2382C110.569 10.9856 109.675 11.3593 108.64 11.3593C107.602 11.3593 106.711 10.9856 105.961 10.2382C105.211 9.49084 104.837 8.60217 104.837 7.56766C104.837 6.53544 105.211 5.64449 105.961 4.89709ZM105.349 15.2239V33.7356H111.757V15.2239H105.349Z" fill="white"/>
<path d="M122.76 14.6771C123.82 14.6771 124.867 14.8001 125.905 15.0416C126.94 15.2786 127.715 15.5202 128.227 15.7617L128.986 16.1263L126.883 20.3099C125.438 19.5397 124.062 19.1523 122.76 19.1523C122.033 19.1523 121.519 19.2321 121.215 19.3893C120.915 19.5488 120.767 19.8428 120.767 20.2734C120.767 20.3714 120.778 20.4694 120.803 20.5651C120.826 20.6562 120.876 20.7451 120.95 20.8294C121.023 20.916 121.087 20.9889 121.142 21.0482C121.201 21.1097 121.306 21.1758 121.452 21.2487C121.599 21.3216 121.713 21.3763 121.8 21.4127C121.884 21.4492 122.021 21.5039 122.211 21.5768C122.405 21.6452 122.552 21.6953 122.65 21.7318C122.746 21.7682 122.908 21.8229 123.135 21.8958C123.365 21.9687 123.541 22.0189 123.665 22.0416C124.408 22.2604 125.057 22.5042 125.612 22.7708C126.172 23.0329 126.759 23.3906 127.377 23.8463C127.991 24.3021 128.467 24.8808 128.803 25.5781C129.136 26.2777 129.306 27.0706 129.306 27.957C129.306 32.168 126.373 34.2734 120.511 34.2734C119.181 34.2734 117.919 34.0683 116.726 33.6627C115.53 33.2571 114.669 32.847 114.139 32.4323L113.343 31.7851L115.949 27.4193C116.143 27.5901 116.397 27.7907 116.708 28.0208C117.023 28.2464 117.59 28.5586 118.408 28.9596C119.231 29.3561 119.944 29.5521 120.547 29.5521C121.875 29.5521 122.54 29.1054 122.54 28.2122C122.54 27.8066 122.369 27.4899 122.028 27.2643C121.692 27.0342 121.119 26.7767 120.31 26.4896C119.505 26.1979 118.87 25.9313 118.408 25.6875C117.249 25.0859 116.333 24.4069 115.656 23.6458C114.984 22.887 114.651 21.8844 114.651 20.638C114.651 18.7604 115.377 17.2998 116.836 16.2539C118.298 15.2034 120.273 14.6771 122.76 14.6771Z" fill="white"/>
<path d="M149.69 25.3594H136.224C136.224 26.6605 136.644 27.6243 137.485 28.2487C138.331 28.8753 139.25 29.1875 140.237 29.1875C141.279 29.1875 142.102 29.0508 142.706 28.7773C143.309 28.4993 143.995 27.9479 144.763 27.1276L149.398 29.4427C147.464 32.6647 144.255 34.2734 139.771 34.2734C136.967 34.2734 134.562 33.3209 132.558 31.4114C130.558 29.4974 129.559 27.1959 129.559 24.5026C129.559 21.8047 130.558 19.4941 132.558 17.5664C134.562 15.6409 136.967 14.6771 139.771 14.6771C142.715 14.6771 145.11 15.5247 146.957 17.22C148.804 18.9153 149.727 21.3398 149.727 24.4935C149.727 24.931 149.713 25.2204 149.69 25.3594ZM136.407 21.8229H143.464C143.318 20.8636 142.937 20.1253 142.322 19.6081C141.705 19.0931 140.916 18.8333 139.954 18.8333C138.886 18.8333 138.039 19.1113 137.412 19.6627C136.784 20.2165 136.448 20.9365 136.407 21.8229Z" fill="white"/>
<path d="M0.453125 3.78903H11.3507C14.3905 3.78903 16.8498 4.57288 18.7286 6.14059C20.6119 7.70374 21.5535 9.97555 21.5535 12.9583C21.5535 15.9433 20.5982 18.2812 18.692 19.9765C16.7904 21.6718 14.3425 22.5195 11.3507 22.5195H7.25499V33.5664H0.453125V3.78903ZM7.25499 17.1054H9.17487C10.6925 17.1054 11.9381 16.8001 12.9141 16.1848C13.8946 15.5719 14.386 14.5693 14.386 13.177C14.386 11.7552 13.8946 10.7389 12.9141 10.1237C11.9381 9.51071 10.6925 9.20309 9.17487 9.20309H7.25499V17.1054Z" fill="black" fill-opacity="0.4"/>
<path d="M22.9697 33.5664V2.52214H29.3785V33.5664H22.9697Z" fill="black" fill-opacity="0.4"/>
<path d="M33.39 31.2786C31.653 29.3896 30.7844 27.0745 30.7844 24.3333C30.7844 21.5875 31.653 19.2633 33.39 17.3606C35.127 15.4602 37.3349 14.5078 40.0182 14.5078C42.4797 14.5078 44.507 15.2802 46.0978 16.8229V15.0546H52.5065V33.5664H46.1709V31.47H46.0978C44.507 33.2268 42.4797 34.1041 40.0182 34.1041C37.3349 34.1041 35.127 33.163 33.39 31.2786ZM38.8388 21.1888C38.0091 22.0045 37.5955 23.0481 37.5955 24.3242C37.5955 25.6002 37.9909 26.6438 38.7839 27.4505C39.5816 28.2526 40.633 28.6536 41.938 28.6536C43.1928 28.6536 44.2236 28.248 45.0281 27.4322C45.8372 26.6119 46.2441 25.5774 46.2441 24.3242C46.2441 23.0481 45.8258 22.0045 44.9916 21.1888C44.1619 20.3684 43.1448 19.9583 41.938 19.9583C40.7061 19.9583 39.673 20.3684 38.8388 21.1888Z" fill="black" fill-opacity="0.4"/>
<path d="M69.3393 15.0546H76.7263L62.1352 42.9544H54.7482L61.157 30.677L52.3621 15.0546H59.7491L64.9236 24.5429L69.3393 15.0546Z" fill="black" fill-opacity="0.4"/>
<path d="M0.453125 3.78903H11.3507C14.3905 3.78903 16.8498 4.57288 18.7286 6.14059C20.6119 7.70374 21.5535 9.97555 21.5535 12.9583C21.5535 15.9433 20.5982 18.2812 18.692 19.9765C16.7904 21.6718 14.3425 22.5195 11.3507 22.5195H7.25499V33.5664H0.453125V3.78903ZM7.25499 17.1054H9.17487C10.6925 17.1054 11.9381 16.8001 12.9141 16.1848C13.8946 15.5719 14.386 14.5693 14.386 13.177C14.386 11.7552 13.8946 10.7389 12.9141 10.1237C11.9381 9.51071 10.6925 9.20309 9.17487 9.20309H7.25499V17.1054Z" fill="white"/>
<path d="M22.9697 33.5664V2.52214H29.3785V33.5664H22.9697Z" fill="white"/>
<path d="M33.39 31.2786C31.653 29.3896 30.7844 27.0745 30.7844 24.3333C30.7844 21.5875 31.653 19.2633 33.39 17.3606C35.127 15.4602 37.3349 14.5078 40.0182 14.5078C42.4797 14.5078 44.507 15.2802 46.0978 16.8229V15.0546H52.5065V33.5664H46.1709V31.47H46.0978C44.507 33.2268 42.4797 34.1041 40.0182 34.1041C37.3349 34.1041 35.127 33.163 33.39 31.2786ZM38.8388 21.1888C38.0091 22.0045 37.5955 23.0481 37.5955 24.3242C37.5955 25.6002 37.9909 26.6438 38.7839 27.4505C39.5816 28.2526 40.633 28.6536 41.938 28.6536C43.1928 28.6536 44.2236 28.248 45.0281 27.4322C45.8372 26.6119 46.2441 25.5774 46.2441 24.3242C46.2441 23.0481 45.8258 22.0045 44.9916 21.1888C44.1619 20.3684 43.1448 19.9583 41.938 19.9583C40.7061 19.9583 39.673 20.3684 38.8388 21.1888Z" fill="white"/>
<path d="M69.3393 15.0546H76.7263L62.1352 42.9544H54.7482L61.157 30.677L52.3621 15.0546H59.7491L64.9236 24.5429L69.3393 15.0546Z" fill="white"/>
</svg>
